<?xml version="1.0" standalone="no"?>
<!DOCTYPE svg PUBLIC "-//W3C//DTD SVG 20010904//EN"
 "http://www.w3.org/TR/2001/REC-SVG-20010904/DTD/svg10.dtd">
<svg version="1.0" xmlns="http://www.w3.org/2000/svg"
 width="170.000000pt" height="170.000000pt" viewBox="0 0 170.000000 170.000000"
 preserveAspectRatio="xMidYMid meet">

<g transform="translate(0.000000,170.000000) scale(0.100000,-0.100000)"
fill="#000000" stroke="none">
<path d="M798 1533 l-118 -4 -14 -33 c-7 -18 -25 -51 -39 -73 l-25 -40 36 12
c72 25 210 33 316 18 112 -15 156 -28 253 -75 90 -44 181 -134 213 -211 l24
-57 48 0 48 0 0 60 c0 104 -59 195 -178 274 -100 66 -179 96 -317 121 -44 8
-91 14 -105 13 -14 -1 -78 -4 -142 -5z"/>
<path d="M731 1342 c-15 -5 -28 -19 -34 -37 -29 -90 -134 -138 -223 -100 -34
14 -35 14 -73 -20 -56 -51 -100 -141 -108 -220 l-6 -65 54 0 54 0 17 58 c31
103 141 205 268 248 78 26 264 26 340 0 85 -29 129 -54 182 -104 57 -54 94
-111 103 -164 l7 -38 56 0 55 0 -6 65 c-15 153 -132 281 -326 353 -56 21 -87
25 -201 28 -74 2 -146 0 -159 -4z"/>
<path d="M181 1213 c-6 -13 -11 -48 -11 -78 l0 -55 48 0 49 0 24 52 c13 29 34
64 46 78 l21 26 -83 0 c-78 0 -84 -2 -94 -23z"/>
<path d="M744 1173 c-6 -4 -14 -18 -18 -30 -13 -40 -55 -64 -108 -62 -41 2
-53 -2 -79 -27 -36 -34 -87 -134 -96 -187 l-6 -37 51 0 c51 0 51 0 71 44 26
60 89 126 148 156 41 21 62 25 143 25 81 0 102 -4 143 -25 59 -30 122 -96 148
-156 20 -43 21 -44 69 -44 l50 0 -6 33 c-10 54 -59 152 -99 196 -22 24 -68 56
-113 79 -71 35 -82 37 -181 40 -58 1 -111 -1 -117 -5z"/>
<path d="M812 960 c-29 -37 -89 -57 -130 -42 -26 9 -33 7 -55 -16 -32 -34 -66
-108 -67 -144 l0 -28 74 0 74 0 6 31 c9 48 43 87 86 100 90 27 160 -22 160
-112 0 -87 -41 -140 -210 -276 -134 -108 -191 -184 -209 -278 l-8 -45 298 0
299 0 0 70 0 70 -181 0 c-140 0 -180 3 -177 13 3 6 61 62 131 122 184 161 219
212 220 320 1 112 -61 199 -165 230 -80 23 -119 19 -146 -15z"/>
</g>
</svg>
